<svg width="421" height="216" viewBox="0 0 421 216" fill="none" xmlns="http://www.w3.org/2000/svg">
<circle cx="7" cy="209" r="7" fill="#A4E8E0"/>
<circle cx="34" cy="209" r="7" fill="#A4E8E0"/>
<circle cx="61" cy="209" r="7" fill="#A4E8E0"/>
<circle cx="88" cy="209" r="7" fill="#A4E8E0"/>
<circle cx="117" cy="209" r="7" fill="#A4E8E0"/>
<circle cx="149" cy="208" r="7" fill="#A4E8E0"/>
<circle cx="181" cy="207" r="7" fill="#A4E8E0"/>
<circle cx="212" cy="207" r="7" fill="#A4E8E0"/>
<circle cx="63" cy="155" r="7" fill="#A4E8E0"/>
<circle cx="90" cy="155" r="7" fill="#A4E8E0"/>
<circle cx="117" cy="155" r="7" fill="#A4E8E0"/>
<circle cx="144" cy="155" r="7" fill="#A4E8E0"/>
<circle cx="173" cy="155" r="7" fill="#A4E8E0"/>
<circle cx="205" cy="154" r="7" fill="#A4E8E0"/>
<circle cx="237" cy="153" r="7" fill="#A4E8E0"/>
<circle cx="268" cy="153" r="7" fill="#A4E8E0"/>
<circle cx="117" cy="101" r="7" fill="#A4E8E0"/>
<circle cx="144" cy="101" r="7" fill="#A4E8E0"/>
<circle cx="171" cy="101" r="7" fill="#A4E8E0"/>
<circle cx="198" cy="101" r="7" fill="#A4E8E0"/>
<circle cx="227" cy="101" r="7" fill="#A4E8E0"/>
<circle cx="259" cy="100" r="7" fill="#A4E8E0"/>
<circle cx="291" cy="99" r="7" fill="#A4E8E0"/>
<circle cx="322" cy="99" r="7" fill="#A4E8E0"/>
<circle cx="173" cy="45" r="7" fill="#A4E8E0"/>
<circle cx="200" cy="45" r="7" fill="#A4E8E0"/>
<circle cx="227" cy="45" r="7" fill="#A4E8E0"/>
<circle cx="254" cy="45" r="7" fill="#A4E8E0"/>
<circle cx="283" cy="45" r="7" fill="#A4E8E0"/>
<circle cx="315" cy="44" r="7" fill="#A4E8E0"/>
<circle cx="347" cy="43" r="7" fill="#A4E8E0"/>
<circle cx="378" cy="43" r="7" fill="#A4E8E0"/>
<circle cx="25" cy="191" r="7" fill="#A4E8E0"/>
<circle cx="52" cy="191" r="7" fill="#A4E8E0"/>
<circle cx="79" cy="191" r="7" fill="#A4E8E0"/>
<circle cx="106" cy="191" r="7" fill="#A4E8E0"/>
<circle cx="135" cy="191" r="7" fill="#A4E8E0"/>
<circle cx="167" cy="190" r="7" fill="#A4E8E0"/>
<circle cx="199" cy="189" r="7" fill="#A4E8E0"/>
<circle cx="230" cy="189" r="7" fill="#A4E8E0"/>
<circle cx="81" cy="137" r="7" fill="#A4E8E0"/>
<circle cx="108" cy="137" r="7" fill="#A4E8E0"/>
<circle cx="135" cy="137" r="7" fill="#A4E8E0"/>
<circle cx="162" cy="137" r="7" fill="#A4E8E0"/>
<circle cx="191" cy="137" r="7" fill="#A4E8E0"/>
<circle cx="223" cy="136" r="7" fill="#A4E8E0"/>
<circle cx="255" cy="135" r="7" fill="#A4E8E0"/>
<circle cx="286" cy="135" r="7" fill="#A4E8E0"/>
<circle cx="135" cy="83" r="7" fill="#A4E8E0"/>
<circle cx="162" cy="83" r="7" fill="#A4E8E0"/>
<circle cx="189" cy="83" r="7" fill="#A4E8E0"/>
<circle cx="216" cy="83" r="7" fill="#A4E8E0"/>
<circle cx="245" cy="83" r="7" fill="#A4E8E0"/>
<circle cx="277" cy="82" r="7" fill="#A4E8E0"/>
<circle cx="309" cy="81" r="7" fill="#A4E8E0"/>
<circle cx="340" cy="81" r="7" fill="#A4E8E0"/>
<circle cx="191" cy="27" r="7" fill="#A4E8E0"/>
<circle cx="218" cy="27" r="7" fill="#A4E8E0"/>
<circle cx="245" cy="27" r="7" fill="#A4E8E0"/>
<circle cx="272" cy="27" r="7" fill="#A4E8E0"/>
<circle cx="301" cy="27" r="7" fill="#A4E8E0"/>
<circle cx="333" cy="26" r="7" fill="#A4E8E0"/>
<circle cx="365" cy="25" r="7" fill="#A4E8E0"/>
<circle cx="396" cy="25" r="7" fill="#A4E8E0"/>
<circle cx="43" cy="173" r="7" fill="#A4E8E0"/>
<circle cx="70" cy="173" r="7" fill="#A4E8E0"/>
<circle cx="97" cy="173" r="7" fill="#A4E8E0"/>
<circle cx="124" cy="173" r="7" fill="#A4E8E0"/>
<circle cx="153" cy="173" r="7" fill="#A4E8E0"/>
<circle cx="185" cy="172" r="7" fill="#A4E8E0"/>
<circle cx="217" cy="171" r="7" fill="#A4E8E0"/>
<circle cx="248" cy="171" r="7" fill="#A4E8E0"/>
<circle cx="99" cy="119" r="7" fill="#A4E8E0"/>
<circle cx="126" cy="119" r="7" fill="#A4E8E0"/>
<circle cx="153" cy="119" r="7" fill="#A4E8E0"/>
<circle cx="180" cy="119" r="7" fill="#A4E8E0"/>
<circle cx="209" cy="119" r="7" fill="#A4E8E0"/>
<circle cx="241" cy="118" r="7" fill="#A4E8E0"/>
<circle cx="273" cy="117" r="7" fill="#A4E8E0"/>
<circle cx="304" cy="117" r="7" fill="#A4E8E0"/>
<circle cx="153" cy="65" r="7" fill="#A4E8E0"/>
<circle cx="180" cy="65" r="7" fill="#A4E8E0"/>
<circle cx="207" cy="65" r="7" fill="#A4E8E0"/>
<circle cx="234" cy="65" r="7" fill="#A4E8E0"/>
<circle cx="263" cy="65" r="7" fill="#A4E8E0"/>
<circle cx="295" cy="64" r="7" fill="#A4E8E0"/>
<circle cx="327" cy="63" r="7" fill="#A4E8E0"/>
<circle cx="358" cy="63" r="7" fill="#A4E8E0"/>
<circle cx="209" cy="9" r="7" fill="#A4E8E0"/>
<circle cx="236" cy="9" r="7" fill="#A4E8E0"/>
<circle cx="263" cy="9" r="7" fill="#A4E8E0"/>
<circle cx="290" cy="9" r="7" fill="#A4E8E0"/>
<circle cx="319" cy="9" r="7" fill="#A4E8E0"/>
<circle cx="351" cy="8" r="7" fill="#A4E8E0"/>
<circle cx="383" cy="7" r="7" fill="#A4E8E0"/>
<circle cx="414" cy="7" r="7" fill="#A4E8E0"/>
</svg>
